<?xml version="1.0" encoding="UTF-8"?>
<svg id="Camada_1" xmlns="http://www.w3.org/2000/svg" version="1.1" xmlns:xlink="http://www.w3.org/1999/xlink" viewBox="0 0 548.72 408.06">
  <!-- Generator: Adobe Illustrator 29.5.1, SVG Export Plug-In . SVG Version: 2.1.0 Build 141)  -->
  <defs>
    <style>
      .st0 {
        fill: #e49b10;
      }

      .st1 {
        filter: url(#outer-glow-1);
      }
    </style>
    <filter id="outer-glow-1" x="-15.07" y="-15.65" width="579" height="439">
      <feOffset dx="0" dy="0"/>
      <feGaussianBlur result="blur" stdDeviation="5"/>
      <feFlood flood-color="#e49b10" flood-opacity=".6"/>
      <feComposite in2="blur" operator="in"/>
      <feComposite in="SourceGraphic"/>
    </filter>
  </defs>
  <g class="st1">
    <rect class="st0" x="87.4" width="24.5" height="24.5" rx="4" ry="4"/>
    <rect class="st0" x="52.4" y="40" width="18" height="18" rx="4" ry="4"/>
    <path class="st0" d="M88.16,96.29h24.12c2.21,0,4-1.79,4-4v-24.12c0-.17-.03-.34-.05-.51l5.11-4.95c.24.05.5.08.76.08h22c2.21,0,4-1.79,4-4v-22c0-2.21-1.79-4-4-4h-22c-2.21,0-4,1.79-4,4v22.1l-5.49,5.31c-.11,0-.22-.03-.33-.03h-24.12c-2.21,0-4,1.79-4,4v24.12c0,2.21,1.79,4,4,4Z"/>
    <path class="st0" d="M359.93,92.34l-51.35,102.73c-1.3-.34-2.65-.54-4.06-.54-8.84,0-16,7.16-16,16s7.16,16,16,16,16-7.16,16-16c0-4.92-2.22-9.32-5.72-12.25l51.29-102.6c1.39.39,2.85.62,4.37.62,8.87,0,16.06-7.19,16.06-16.06s-7.19-16.06-16.06-16.06-16.06,7.19-16.06,16.06c0,4.84,2.15,9.16,5.53,12.11h0Z"/>
    <path class="st0" d="M437.29,31.66c-.66-1.07-1.81-1.7-3.06-1.7h-81.73c-3.07,0-5.82,1.7-7.19,4.45l-86.96,174.53-50.08-101.37c1.03-.72,1.71-1.92,1.71-3.28v-42.29c0-2.21-1.79-4-4-4h-42.29c-2.21,0-4,1.79-4,4v42.29c0,.06,0,.11.02.17l-18.57,17.96h-34.25c-2.21,0-4,1.79-4,4v36.12c0,2.21,1.79,4,4,4h35.77l68.08,134.29c1.37,2.7,4.1,4.38,7.12,4.38l84.79.41L437.46,35.16c.56-1.13.49-2.43-.17-3.5h0ZM221,298.23l20.17-36.88.47-.86-41.29-83.51c3.82-2.97,6.28-7.6,6.28-12.81,0-8.97-7.27-16.24-16.24-16.24s-16.24,7.27-16.24,16.24,7.27,16.24,16.24,16.24c1.25,0,2.46-.15,3.63-.42l39.72,80.34-18.53,33.88-68.22-134.56v-33.16l18.82-18.2h35l54.8,110.92,39.21,79.38-73.84-.36h.02ZM300.49,294.25l-38.25-77.43,89.33-179.29c.17-.35.53-.57.92-.57h76.25l-128.25,257.29h0Z"/>
    <path class="st0" d="M17.03,388.08v-47.19H0v61.7c0,2.5,2.02,4.52,4.52,4.52h63.6v-14.29H21.77c-2.62,0-4.75-2.12-4.75-4.75h.01Z"/>
    <path class="st0" d="M133.87,382.61c-5.01,5.87-16.74,11.45-27.62,11.45-13.34,0-17.31-6.15-17.31-17.97v-24.69h-16.27l-.19,30.84c.19,20.53,14.1,25.83,28.95,25.83,13.53,0,24.5-4.45,32.45-10.69v9.74h16.18v-55.72h-16.18v31.22h-.01Z"/>
    <path class="st0" d="M254.3,350.44c-13.81,0-23.75,4.82-30.94,10.22-4.26-7.76-12.2-10.22-20.62-10.22-13.81,0-22.89,5.2-28.95,10.03v-9.08h-12.66c-1.94,0-3.52,1.58-3.52,3.52v47.61c0,2.54,2.06,4.59,4.59,4.59h11.58v-32.83c4.64-5.01,13.72-9.84,23.08-9.84,11.54,0,13.53,6.15,13.53,17.98v24.69h16.18l.19-31.22c0-1.04,0-1.99-.09-2.93,4.92-4.45,13.24-8.51,21.76-8.51,11.54,0,13.53,6.15,13.53,17.98v24.69h16.18l.19-31.22c-.19-20.15-11.54-25.45-24.03-25.45h0Z"/>
    <rect class="st0" x="285.9" y="331.43" width="16.18" height="14.1"/>
    <rect class="st0" x="285.9" y="351.39" width="16.18" height="55.72"/>
    <path class="st0" d="M392.67,340.89h-11.69l-26.58,53.64-26.58-53.64h-11.95c-3.27,0-5.38,3.46-3.89,6.37l30.78,59.85h23.27l30.66-59.63c1.55-3.01-.64-6.6-4.03-6.6h.01Z"/>
    <path class="st0" d="M430.84,350.44c-23.08,0-38.6,8.33-38.6,28.85s15.51,28.76,38.6,28.76,38.6-8.33,38.6-28.76-15.61-28.85-38.6-28.85ZM430.84,394.53c-15.04,0-22.42-3.69-22.42-15.23s7.38-15.33,22.42-15.33,22.33,3.69,22.33,15.33-7.38,15.23-22.33,15.23Z"/>
    <polygon class="st0" points="548.72 351.39 526.96 351.39 506.52 369.84 486.09 351.39 464.33 351.39 495.64 379.3 464.33 407.11 486.09 407.11 506.52 388.66 526.96 407.11 548.72 407.11 517.31 379.3 548.72 351.39"/>
  </g>
</svg>